<?xml version="1.0" standalone="no"?>
<!DOCTYPE svg PUBLIC "-//W3C//DTD SVG 20010904//EN"
 "http://www.w3.org/TR/2001/REC-SVG-20010904/DTD/svg10.dtd">
<svg version="1.0" xmlns="http://www.w3.org/2000/svg"
 width="625.000000pt" height="625.000000pt" viewBox="0 0 625.000000 625.000000"
 preserveAspectRatio="xMidYMid meet">

<g transform="translate(0.000000,625.000000) scale(0.100000,-0.100000)"
fill="#000000" stroke="none">
<path d="M3085 5931 c-49 -22 -73 -64 -95 -165 -71 -325 -209 -675 -400 -1007
-151 -263 -350 -556 -662 -970 -394 -525 -569 -839 -652 -1174 -78 -311 -73
-608 14 -956 83 -332 230 -601 449 -819 159 -158 321 -261 566 -358 519 -206
936 -222 1435 -55 528 176 930 549 1149 1065 64 150 132 434 146 608 12 154
-29 422 -91 600 -86 248 -283 567 -609 985 -276 354 -461 648 -646 1030 -163
335 -298 674 -409 1021 -33 105 -48 138 -74 163 -35 34 -86 47 -121 32z m-620
-2203 c76 -35 37 -144 -216 -600 -209 -376 -277 -535 -312 -728 -34 -186 -31
-294 14 -520 40 -201 88 -300 244 -514 107 -146 129 -192 123 -258 -14 -142
-137 -143 -310 -1 -201 164 -378 487 -418 762 -17 113 -7 366 19 493 70 344
297 776 617 1172 118 147 163 190 211 205 1 1 14 -4 28 -11z m254 -2777 c79
-29 150 -71 184 -108 42 -47 40 -112 -5 -160 -20 -21 -30 -23 -128 -23 -133 0
-192 17 -253 71 -60 52 -76 103 -52 165 33 88 115 106 254 55z"/>
</g>
</svg>
