<?xml version="1.0" standalone="no"?>
<!DOCTYPE svg PUBLIC "-//W3C//DTD SVG 20010904//EN"
 "http://www.w3.org/TR/2001/REC-SVG-20010904/DTD/svg10.dtd">
<svg version="1.0" xmlns="http://www.w3.org/2000/svg"
 width="500.000000pt" height="500.000000pt" viewBox="0 0 500.000000 500.000000"
 preserveAspectRatio="xMidYMid meet">

<g transform="translate(0.000000,500.000000) scale(0.100000,-0.100000)"
fill="#000000" stroke="none">
<path d="M4256 4516 c-89 -38 -144 -98 -217 -240 -82 -160 -126 -223 -229
-330 -100 -104 -201 -185 -360 -288 -135 -87 -631 -386 -928 -559 -114 -66
-217 -132 -230 -146 -16 -17 -22 -35 -20 -56 3 -28 9 -32 65 -51 34 -12 67
-25 72 -31 6 -6 4 -36 -6 -84 -8 -40 -11 -77 -6 -81 4 -5 29 -15 56 -22 42
-11 51 -10 80 7 454 269 1404 739 1699 842 37 13 134 33 215 44 167 22 221 37
270 74 92 71 132 288 75 405 -12 25 -57 90 -101 145 -79 100 -104 141 -159
266 -39 87 -82 122 -160 126 -44 3 -71 -2 -116 -21z"/>
<path d="M2368 4099 l-31 -30 6 -212 c6 -214 20 -370 38 -440 7 -28 15 -37 27
-35 22 4 45 74 76 231 53 262 69 444 43 478 -38 49 -115 53 -159 8z"/>
<path d="M1681 4033 c-51 -64 -38 -100 121 -338 161 -242 249 -341 265 -300
21 55 -191 609 -248 649 -14 9 -43 16 -70 16 -40 0 -51 -5 -68 -27z"/>
<path d="M1280 3529 c-53 -11 -78 -58 -66 -123 4 -18 14 -40 24 -49 40 -36
381 -194 526 -243 118 -41 139 -29 74 42 -52 56 -272 234 -383 310 -90 61
-125 74 -175 63z"/>
<path d="M1950 2664 c-202 -175 -548 -467 -650 -549 -126 -101 -217 -159 -350
-226 -146 -73 -210 -97 -411 -158 -125 -37 -167 -55 -207 -85 -130 -100 -185
-243 -129 -340 12 -22 63 -74 112 -116 50 -42 100 -91 113 -110 33 -49 29
-103 -13 -191 -52 -108 -53 -128 -16 -204 18 -36 47 -76 64 -89 47 -35 129
-56 221 -56 200 0 342 85 425 256 21 42 53 144 82 259 53 213 63 244 109 336
51 102 115 185 244 318 128 130 496 480 706 670 69 62 126 116 128 121 1 4
-20 10 -48 14 l-50 7 0 72 c0 44 -5 80 -12 89 -8 9 -36 18 -71 21 -69 7 -87
19 -87 58 0 16 -3 29 -7 29 -5 -1 -73 -57 -153 -126z"/>
</g>
</svg>
