<?xml version="1.0" standalone="no"?>
<!DOCTYPE svg PUBLIC "-//W3C//DTD SVG 20010904//EN"
 "http://www.w3.org/TR/2001/REC-SVG-20010904/DTD/svg10.dtd">
<svg version="1.0" xmlns="http://www.w3.org/2000/svg"
 width="600.000000pt" height="600.000000pt" viewBox="0 0 600.000000 600.000000"
 preserveAspectRatio="xMidYMid meet">

<g transform="translate(0.000000,600.000000) scale(0.100000,-0.100000)"
fill="#000000" stroke="none">
<path d="M1872 5580 c-252 -66 -477 -296 -585 -595 -102 -284 -98 -617 10
-910 37 -102 72 -160 211 -355 156 -219 185 -278 190 -383 4 -83 -4 -486 -40
-1854 -24 -955 -30 -868 64 -920 201 -111 414 -111 625 0 94 49 88 -13 69 740
-32 1276 -47 2032 -42 2075 9 69 58 159 179 329 143 200 180 261 213 348 93
246 115 517 62 765 -52 242 -151 425 -315 580 -180 170 -420 238 -641 180z
m231 -391 c30 -32 34 -60 15 -102 -14 -29 -62 -57 -100 -57 -69 -1 -154 -74
-207 -179 -17 -32 -42 -68 -57 -80 -62 -49 -148 -4 -147 76 0 54 64 164 138
239 76 77 129 109 215 129 72 17 109 10 143 -26z m-393 -639 c26 -26 35 -51
44 -115 4 -27 16 -77 26 -110 22 -74 17 -107 -22 -140 -39 -33 -78 -32 -116 3
-33 30 -54 86 -77 207 -17 89 -9 134 28 160 31 22 93 19 117 -5z"/>
<path d="M3285 5561 c-11 -5 -29 -19 -40 -31 -20 -22 -20 -38 -23 -789 -2
-421 0 -781 3 -799 8 -42 30 -61 133 -112 148 -74 260 -215 298 -376 16 -70
16 -217 -1 -864 -3 -102 -15 -582 -27 -1067 -24 -1000 -30 -908 64 -960 203
-112 428 -111 636 5 82 46 77 -32 53 915 -44 1733 -46 1896 -27 1972 33 132
107 244 215 325 36 27 87 57 114 67 26 9 59 30 75 46 l27 28 3 782 c2 768 2
783 -18 815 -11 18 -32 37 -46 42 -14 6 -117 10 -230 10 l-204 0 0 -643 c0
-628 0 -642 -20 -655 -15 -9 -25 -9 -45 0 l-25 11 0 644 0 643 -195 0 -195 0
0 -400 c0 -384 -1 -402 -20 -422 -18 -20 -20 -20 -45 -4 l-25 16 0 405 0 405
-207 -1 c-115 0 -217 -4 -228 -8z m524 -1075 c37 -20 51 -55 51 -134 0 -110
-51 -167 -126 -142 -53 18 -64 42 -64 143 0 85 1 90 29 118 33 32 67 37 110
15z"/>
</g>
</svg>
