<?xml version="1.0" standalone="no"?>
<!DOCTYPE svg PUBLIC "-//W3C//DTD SVG 20010904//EN"
 "http://www.w3.org/TR/2001/REC-SVG-20010904/DTD/svg10.dtd">
<svg version="1.0" xmlns="http://www.w3.org/2000/svg"
 width="500.000000pt" height="500.000000pt" viewBox="0 0 500.000000 500.000000"
 preserveAspectRatio="xMidYMid meet">

<g transform="translate(0.000000,500.000000) scale(0.100000,-0.100000)"
fill="#000000" stroke="none">
<path d="M2407 4615 c-265 -46 -464 -191 -576 -419 -84 -170 -81 -130 -81
-1142 l0 -887 -53 -66 c-147 -181 -210 -320 -247 -540 -20 -118 -20 -119 0
-247 28 -188 77 -319 172 -461 173 -259 442 -423 765 -467 102 -14 124 -14
225 0 422 58 754 324 890 714 24 71 33 112 52 239 15 99 15 111 -4 223 -11 65
-29 146 -41 180 -33 100 -106 232 -181 329 l-68 88 0 886 c0 771 -2 896 -16
963 -63 304 -293 534 -595 595 -117 24 -159 26 -242 12z m208 -310 c165 -43
300 -182 334 -343 8 -37 11 -336 11 -967 0 -558 4 -923 10 -939 5 -14 34 -51
65 -83 74 -76 109 -127 155 -226 45 -99 59 -154 67 -263 35 -489 -423 -887
-905 -788 -374 77 -635 415 -609 788 8 116 22 166 78 282 38 80 64 118 124
182 41 44 82 96 90 116 13 30 15 163 15 955 0 874 1 922 19 980 71 230 315
366 546 306z"/>
<path d="M2415 1911 c-185 -45 -303 -159 -355 -340 -21 -76 -22 -88 -11 -169
23 -170 112 -297 260 -370 73 -36 77 -37 190 -37 113 0 118 1 191 36 147 71
238 201 261 371 11 81 10 93 -11 169 -53 185 -176 300 -367 343 -84 19 -70 19
-158 -3z"/>
</g>
</svg>
