<?xml version="1.0" standalone="no"?>
<!DOCTYPE svg PUBLIC "-//W3C//DTD SVG 20010904//EN"
 "http://www.w3.org/TR/2001/REC-SVG-20010904/DTD/svg10.dtd">
<svg version="1.0" xmlns="http://www.w3.org/2000/svg"
 width="500.000000pt" height="500.000000pt" viewBox="0 0 500.000000 500.000000"
 preserveAspectRatio="xMidYMid meet">

<g transform="translate(0.000000,500.000000) scale(0.100000,-0.100000)"
fill="#000000" stroke="none">
<path d="M2238 4683 c-45 -47 -49 -72 -48 -300 l1 -214 -33 -38 c-33 -37 -56
-65 -142 -169 -82 -100 -203 -328 -231 -437 -12 -43 -15 -124 -15 -347 0 -343
0 -343 101 -418 83 -62 109 -94 109 -136 0 -58 -18 -82 -116 -157 -23 -17 -53
-47 -65 -66 l-24 -35 -3 -898 -2 -898 29 -64 c36 -79 91 -135 167 -170 l58
-27 495 3 496 3 45 27 c58 35 112 91 142 148 21 41 23 59 26 225 2 99 7 184
13 190 12 12 12 222 -1 230 -12 7 -14 191 -2 199 9 5 8 213 -1 222 -11 12 -8
182 3 189 7 4 8 43 4 113 -4 59 -10 202 -13 319 -7 242 0 225 -117 308 -71 51
-99 98 -89 148 9 40 23 56 106 123 103 82 100 70 96 441 -2 175 -7 332 -12
350 -4 18 -33 83 -64 145 -73 145 -77 152 -132 223 -25 33 -48 66 -50 72 -2 7
-40 51 -84 100 l-80 88 8 155 c12 244 0 326 -55 364 -19 13 -61 16 -258 16
l-236 0 -26 -27z"/>
</g>
</svg>
