<?xml version="1.0" standalone="no"?>
<!DOCTYPE svg PUBLIC "-//W3C//DTD SVG 20010904//EN"
 "http://www.w3.org/TR/2001/REC-SVG-20010904/DTD/svg10.dtd">
<svg version="1.0" xmlns="http://www.w3.org/2000/svg"
 width="650.000000pt" height="650.000000pt" viewBox="0 0 650.000000 650.000000"
 preserveAspectRatio="xMidYMid meet">

<g transform="translate(0.000000,650.000000) scale(0.100000,-0.100000)"
fill="#000000" stroke="none">
<path d="M3055 5200 c-490 -31 -955 -166 -1395 -408 -130 -71 -140 -76 -255
-151 -424 -273 -802 -647 -1071 -1061 -175 -271 -175 -389 0 -660 192 -294
448 -581 725 -809 113 -94 142 -114 306 -224 487 -325 979 -510 1525 -573 179
-21 541 -21 720 0 574 66 1113 276 1615 630 367 259 698 602 940 975 176 272
176 390 1 661 -269 413 -647 789 -1071 1061 -115 75 -125 80 -255 151 -553
303 -1176 446 -1785 408z m282 -506 c47 -35 73 -82 73 -133 0 -87 -59 -155
-143 -165 -23 -2 -82 -10 -132 -16 -225 -28 -430 -184 -530 -404 -37 -81 -50
-136 -60 -252 -9 -104 -34 -151 -95 -181 -56 -29 -94 -29 -144 0 -80 45 -98
98 -84 239 12 123 39 231 82 323 135 292 402 515 698 584 114 27 131 29 225
27 66 -1 87 -5 110 -22z m-1417 -259 c0 -3 -20 -45 -44 -93 -98 -195 -146
-414 -146 -658 1 -306 64 -541 212 -782 123 -202 331 -410 530 -530 320 -193
728 -256 1123 -173 262 56 502 189 718 400 209 203 341 427 417 706 40 149 52
440 24 624 -19 130 -72 297 -131 415 -24 48 -42 90 -40 93 7 6 143 -72 271
-154 249 -161 487 -370 697 -613 67 -77 230 -293 278 -368 l34 -53 -58 -86
c-330 -485 -794 -894 -1300 -1146 -394 -196 -792 -287 -1255 -287 -590 0
-1075 146 -1585 478 -370 241 -715 581 -970 955 l-58 86 34 53 c48 75 211 291
278 368 255 295 519 514 861 714 92 53 110 62 110 51z"/>
</g>
</svg>
