<?xml version="1.0" standalone="no"?>
<!DOCTYPE svg PUBLIC "-//W3C//DTD SVG 20010904//EN"
 "http://www.w3.org/TR/2001/REC-SVG-20010904/DTD/svg10.dtd">
<svg version="1.0" xmlns="http://www.w3.org/2000/svg"
 width="500.000000pt" height="500.000000pt" viewBox="0 0 500.000000 500.000000"
 preserveAspectRatio="xMidYMid meet">

<g transform="translate(0.000000,500.000000) scale(0.100000,-0.100000)"
fill="#000000" stroke="none">
<path d="M2420 4823 c0 -11 48 -184 52 -188 2 -1 39 -19 82 -39 420 -193 874
-620 1209 -1136 81 -126 274 -478 333 -610 220 -490 337 -1053 295 -1419 l-12
-103 68 -64 c37 -35 71 -63 75 -64 24 -1 50 225 49 424 -2 473 -137 973 -402
1496 -376 742 -908 1321 -1474 1601 -77 39 -165 77 -195 86 -30 9 -61 18 -67
20 -7 3 -13 1 -13 -4z"/>
<path d="M2500 4528 c0 -23 52 -203 62 -215 6 -7 47 -37 92 -67 254 -171 579
-508 806 -834 383 -551 625 -1183 670 -1742 l9 -115 78 -72 c43 -40 82 -73 86
-73 12 0 0 321 -17 445 -88 641 -399 1324 -869 1910 -103 127 -396 421 -507
507 -170 131 -410 281 -410 256z"/>
<path d="M2630 4037 l37 -134 97 -94 c498 -476 898 -1185 1051 -1863 13 -59
25 -109 27 -110 2 -1 42 -39 90 -85 49 -47 90 -82 93 -79 3 3 -3 64 -14 136
-113 738 -536 1545 -1094 2089 -113 110 -290 262 -316 271 -5 2 8 -58 29 -131z"/>
<path d="M1164 4059 c-195 -25 -405 -160 -517 -331 -115 -176 -167 -386 -167
-673 0 -228 23 -407 82 -642 l30 -123 -35 -39 c-113 -126 -130 -295 -57 -587
57 -228 187 -447 365 -613 184 -171 316 -234 525 -248 l95 -6 79 -74 c241
-226 546 -407 826 -489 84 -25 111 -28 240 -29 124 0 156 3 220 23 294 92 485
320 554 662 71 354 23 815 -128 1233 -46 126 -166 404 -192 444 -8 12 -39 69
-70 125 -212 389 -552 791 -856 1016 -178 131 -410 257 -564 305 -166 52 -286
65 -430 46z m354 -214 c266 -56 567 -240 842 -515 332 -331 605 -768 765
-1226 81 -232 120 -414 137 -650 27 -369 -46 -649 -211 -814 -227 -227 -552
-241 -928 -40 -406 217 -779 616 -1063 1137 -304 560 -426 1164 -320 1593 40
164 98 271 198 367 63 60 207 138 282 152 72 14 223 12 298 -4z"/>
<path d="M1241 3784 c-111 -30 -227 -104 -293 -188 -69 -87 -109 -183 -143
-344 -19 -95 -20 -371 0 -508 27 -191 91 -431 158 -596 l23 -56 -1 146 c0 125
3 158 22 217 29 90 82 159 153 199 52 29 61 31 160 31 93 0 112 -3 170 -29
229 -100 424 -302 581 -599 184 -351 197 -734 29 -891 -71 -67 -102 -79 -205
-84 -72 -3 -102 1 -149 17 -55 20 -148 68 -206 109 -38 26 85 -111 201 -223
255 -247 549 -411 802 -446 67 -9 98 -8 168 4 127 22 208 64 299 156 90 90
129 160 167 296 26 96 27 109 28 335 0 249 -9 328 -60 525 -102 390 -315 813
-594 1180 -131 173 -369 402 -546 526 -277 194 -563 277 -764 223z"/>
<path d="M2700 3677 c0 -4 21 -80 46 -169 l45 -162 92 -125 c93 -127 105 -145
192 -281 100 -156 233 -430 319 -657 30 -78 36 -85 145 -187 63 -58 116 -105
118 -103 4 5 -71 250 -105 342 -160 429 -379 803 -678 1160 -90 109 -174 196
-174 182z"/>
</g>
</svg>
